<?xml version="1.0" encoding="utf-8"?><svg viewBox="0 0 512 512" xmlns="http://www.w3.org/2000/svg" xmlns:xlink="http://www.w3.org/1999/xlink"><style>:root>svg{display:none}:root>svg:target{display:block}</style><svg fill="none" viewBox="0 0 18 17" id="facebook" xmlns="http://www.w3.org/2000/svg"><path d="M2.53 16.776h5.634v-5.963H6.14V8.847h2.024V6.389c0-1.355 1.135-2.457 2.53-2.457h2.53v1.966H11.2c-.558 0-1.012.44-1.012.983v1.966h2.945l-.337 1.966h-2.608v5.963h4.554c1.396 0 2.53-1.102 2.53-2.457V2.457c0-1.355-1.134-2.457-2.53-2.457H2.53C1.135 0 0 1.102 0 2.457V14.32c0 1.355 1.135 2.457 2.53 2.457zM1.012 2.457c0-.813.681-1.474 1.518-1.474h12.213c.837 0 1.518.661 1.518 1.474V14.32c0 .813-.681 1.474-1.518 1.474H11.2v-3.997h2.453l.675-3.932H11.2V6.88h3.037V2.949h-3.543c-1.953 0-3.542 1.543-3.542 3.44v1.475H5.128v3.932h2.024v3.997H2.53c-.837 0-1.518-.661-1.518-1.474V2.457z" fill="#fff"/></svg><svg viewBox="0 0 512 512" id="free-icon-svg-2567477" xmlns="http://www.w3.org/2000/svg"><path d="M477.397 104.371a6.206 6.206 0 00-.023-.469 9.992 9.992 0 00-3.469-6.953L363.495 2.404a9.962 9.962 0 00-5.541-2.337 5.636 5.636 0 00-.963-.067H142.308c-14.052 0-25.485 11.417-25.485 25.45v98.06c0 5.522 4.477 10 10 10s10-4.478 10-10V25.45c0-3.005 2.46-5.45 5.485-5.45h204.683v56.592c0 20.928 17.054 37.953 38.015 37.953h72.396v347.652c0 3.006-2.461 5.451-5.485 5.451h-62.536V350.813c0-16.237-13.229-29.447-29.491-29.447H136.823V213.349c0-5.522-4.477-10-10-10s-10 4.478-10 10v108.018H64.06c-16.246 0-29.462 13.21-29.462 29.447v131.768C34.598 498.803 47.815 512 64.06 512h295.829c14.529 0 26.629-10.538 29.044-24.352h62.983c14.053 0 25.485-11.417 25.485-25.451V104.545c.001-.062-.002-.115-.004-.174zm-92.391-9.826c-9.934 0-18.015-8.054-18.015-17.953V31.729l73.358 62.816zm-15.625 388.036c0 5.193-4.258 9.419-9.491 9.419H64.06c-5.218 0-9.462-4.226-9.462-9.419V350.813c0-5.209 4.245-9.447 9.462-9.447h295.829c5.145 0 9.491 4.326 9.491 9.447v131.768z"/><path d="M319.175 112.802H274.71c-5.522 0-10 4.478-10 10v17.045c-36.551 10.888-65.404 39.717-76.266 76.202h-16.899c-5.523 0-10 4.478-10 10v44.367c0 5.522 4.477 10 10 10h44.465c5.523 0 10-4.478 10-10v-44.367c0-5.522-4.477-10-10-10h-6.485c9.422-25.446 29.685-45.687 55.185-55.121v6.24c0 5.522 4.478 10 10 10h44.465c5.522 0 10-4.478 10-10v-6.352c25.671 9.37 46.06 29.658 55.507 55.233h-6.495c-5.522 0-10 4.478-10 10v44.367c0 5.522 4.478 10 10 10h44.465c5.522 0 10-4.478 10-10v-44.367c0-5.522-4.478-10-10-10h-16.894c-10.878-36.625-39.852-65.487-76.583-76.287v-16.96c0-5.523-4.478-10-10-10zM206.01 260.416h-24.465v-24.367h14.606l.036.002.045-.002h9.777v24.367zm103.165-113.03v9.781H284.71v-9.706-14.66h24.465zm79.012 88.663h9.777l.045.002.036-.002h14.606v24.367h-24.465v-24.367zM128.396 406.697h-4.773c-6.283 0-11.395-5.103-11.395-11.375 0-6.257 5.111-11.347 11.395-11.347h25.202c5.523 0 10-4.478 10-10s-4.477-10-10-10h-25.202c-17.311 0-31.395 14.063-31.395 31.347 0 17.3 14.083 31.375 31.395 31.375h4.773c6.283 0 11.395 5.09 11.395 11.347s-5.111 11.348-11.395 11.348h-26.168c-5.523 0-10 4.478-10 10s4.477 10 10 10h26.168c17.311 0 31.395-14.063 31.395-31.348-.001-17.284-14.084-31.347-31.395-31.347zM315.879 404.345h-5.853c-5.522 0-10 4.478-10 10s4.478 10 10 10h5.853c3.893 0 7.871.846 7.871 7.122v7.229c0 2.646 0 10.695-11.337 10.695h-22.19c-7.152 0-7.474-7.529-7.474-7.605v-46.89c0-6.736 3.539-10.921 9.235-10.921h34.18c5.522 0 10-4.478 10-10s-4.478-10-10-10h-34.18c-16.94 0-29.235 13.004-29.235 30.921v46.89c0 11.463 8.523 27.605 27.474 27.605h22.19c18.743 0 31.337-12.336 31.337-30.695v-7.229c0-15.969-11.461-27.122-27.871-27.122zM242.543 364.457c-5.255-1.692-10.891 1.198-12.583 6.454l-17.979 55.838-17.96-55.836c-1.691-5.257-7.325-8.146-12.582-6.457-5.258 1.691-8.149 7.324-6.458 12.582l27.475 85.416a10 10 0 009.518 6.938h.001a10 10 0 009.519-6.936l27.503-85.416c1.692-5.257-1.197-10.891-6.454-12.583zM126.823 178.443c5.523 0 10-4.478 10-10v-.057c0-5.522-4.477-9.972-10-9.972s-10 4.506-10 10.028 4.477 10.001 10 10.001z"/></svg><svg viewBox="0 0 64 64" id="free-icon-svg-file-2479183" xmlns="http://www.w3.org/2000/svg"><path d="M61 6H49.41l-3.7-3.71A1.033 1.033 0 0045 2H17a1 1 0 00-1 1v18H3a1 1 0 00-1 1v20a1 1 0 001 1h13v14a1 1 0 001 1h3v3a1 1 0 001 1h40a1 1 0 001-1V7a1 1 0 00-1-1zm-15-.59L54.59 14H47a1 1 0 01-1-1zM4 41V23h48v18zm14 15V43h35a1 1 0 001-1V22a1 1 0 00-1-1H18V4h26v9a3.009 3.009 0 003 3h9v40zm42 4H22v-2h35a1 1 0 001-1V15a1.033 1.033 0 00-.29-.71L51.41 8H60z"/><path d="M32 25h-3v2h1.613L28 34.838 25.387 27H27v-2h-3a1 1 0 00-.949 1.316l4 12a1 1 0 001.9 0l4-12A1 1 0 0032 25zM44 25h-8a1 1 0 00-1 1v12a1 1 0 001 1h8a1 1 0 001-1v-6a1 1 0 00-1-1h-4v2h3v4h-6V27h6v2h2v-3a1 1 0 00-1-1zM20 25h-8a1 1 0 00-1 1v6a1 1 0 001 1h7v4h-6v-2h-2v3a1 1 0 001 1h8a1 1 0 001-1v-6a1 1 0 00-1-1h-7v-4h6v2h2v-3a1 1 0 00-1-1z"/></svg><svg fill="none" viewBox="0 0 18 17" id="instagram" xmlns="http://www.w3.org/2000/svg"><path d="M2.53 16.776h12.213c1.395 0 2.53-1.102 2.53-2.457V2.457c0-1.355-1.135-2.457-2.53-2.457H2.53C1.135 0 0 1.102 0 2.457V14.32c0 1.355 1.135 2.457 2.53 2.457zM1.012 2.457c0-.813.681-1.474 1.518-1.474h12.213c.837 0 1.518.661 1.518 1.474V14.32c0 .813-.681 1.474-1.518 1.474H2.53c-.837 0-1.518-.661-1.518-1.474V2.457z" fill="#fff"/><path d="M8.636 12.811c2.512 0 4.555-1.984 4.555-4.423s-2.043-4.423-4.555-4.423c-2.51 0-4.554 1.984-4.554 4.423s2.043 4.423 4.554 4.423zm0-7.863c1.954 0 3.543 1.543 3.543 3.44s-1.59 3.44-3.543 3.44-3.542-1.543-3.542-3.44 1.59-3.44 3.542-3.44zM13.41 4.71c.826 0 1.5-.655 1.5-1.458 0-.803-.674-1.457-1.5-1.457-.828 0-1.5.654-1.5 1.457s.672 1.457 1.5 1.457zm0-1.943c.275 0 .5.217.5.485a.494.494 0 01-.5.486.494.494 0 01-.5-.486c0-.268.223-.485.5-.485z" fill="#fff"/></svg><svg fill="none" viewBox="0 0 18 14" id="twitter" xmlns="http://www.w3.org/2000/svg"><path d="M17.273 1.834c-1.087.048-1.063.044-1.186.054l.644-1.784S14.722.82 14.213.95C12.876-.218 10.888-.27 9.467.579c-1.164.695-1.789 1.888-1.58 3.283-2.265-.306-4.174-1.348-5.68-3.106L1.73.2l-.356.635c-.45.803-.6 1.72-.42 2.584.072.354.197.692.37 1.008l-.41-.154-.048.664c-.049.674.182 1.46.618 2.104.123.181.281.38.482.576l-.212-.031.258.76a3.73 3.73 0 001.956 2.201c-.912.376-1.649.616-2.86 1.003L0 11.903l1.023.544c.39.207 1.77.9 3.132 1.107 3.028.461 6.438.085 8.733-1.922 1.933-1.692 2.568-4.097 2.436-6.6-.02-.38.087-.741.3-1.019.43-.556 1.646-2.176 1.649-2.18zm-2.457 1.59a2.495 2.495 0 00-.502 1.658c.133 2.525-.574 4.483-2.103 5.82-1.785 1.561-4.664 2.174-7.9 1.682-.585-.09-1.191-.29-1.692-.49 1.015-.338 1.8-.64 3.066-1.223l1.767-.813-1.951-.12c-.935-.059-1.714-.499-2.192-1.213.254-.015.499-.055.743-.12L5.913 8.1l-1.877-.447c-.912-.217-1.432-.747-1.707-1.153-.181-.267-.3-.54-.37-.793.188.049.407.084.761.118l1.737.167L3.081 4.95c-.992-.751-1.39-1.88-1.098-2.965 3.095 3.118 6.73 2.883 7.095 2.966-.08-.76-.082-.761-.103-.834-.469-1.608.558-2.425 1.021-2.701.967-.578 2.503-.665 3.566.286.23.206.54.286.831.216.261-.063.475-.13.685-.202l-.437 1.21.558.001c-.105.137-.232.3-.383.498z" fill="#fff"/></svg></svg>